<?xml version="1.0" encoding="UTF-8" standalone="no"?><svg xmlns="http://www.w3.org/2000/svg" xmlns:xlink="http://www.w3.org/1999/xlink" contentScriptType="application/ecmascript" contentStyleType="text/css" height="432px" preserveAspectRatio="none" style="width:542px;height:432px;" version="1.1" viewBox="0 0 542 432" width="542px" zoomAndPan="magnify"><defs><filter height="300%" id="f19d0fg0srbuk2" width="300%" x="-1" y="-1"><feGaussianBlur result="blurOut" stdDeviation="2.0"/><feColorMatrix in="blurOut" result="blurOut2" type="matrix" values="0 0 0 0 0 0 0 0 0 0 0 0 0 0 0 0 0 0 .4 0"/><feOffset dx="4.0" dy="4.0" in="blurOut2" result="blurOut3"/><feBlend in="SourceGraphic" in2="blurOut3" mode="normal"/></filter></defs><g><line style="stroke: #A80036; stroke-width: 1.0;" x1="57" x2="57" y1="65.2969" y2="250.0938"/><line style="stroke: #A80036; stroke-width: 1.0; stroke-dasharray: 1.0,4.0;" x1="57" x2="57" y1="250.0938" y2="290.8984"/><line style="stroke: #A80036; stroke-width: 1.0;" x1="57" x2="57" y1="290.8984" y2="359.1641"/><line style="stroke: #A80036; stroke-width: 1.0;" x1="256" x2="256" y1="65.2969" y2="250.0938"/><line style="stroke: #A80036; stroke-width: 1.0; stroke-dasharray: 1.0,4.0;" x1="256" x2="256" y1="250.0938" y2="290.8984"/><line style="stroke: #A80036; stroke-width: 1.0;" x1="256" x2="256" y1="290.8984" y2="359.1641"/><line style="stroke: #A80036; stroke-width: 1.0;" x1="512.5" x2="512.5" y1="65.2969" y2="250.0938"/><line style="stroke: #A80036; stroke-width: 1.0; stroke-dasharray: 1.0,4.0;" x1="512.5" x2="512.5" y1="250.0938" y2="290.8984"/><line style="stroke: #A80036; stroke-width: 1.0;" x1="512.5" x2="512.5" y1="290.8984" y2="359.1641"/><rect fill="#FEFECE" filter="url(#f19d0fg0srbuk2)" height="30.2969" style="stroke: #A80036; stroke-width: 1.5;" width="95" x="8" y="30"/><text fill="#000000" font-family="sans-serif" font-size="14" lengthAdjust="spacingAndGlyphs" textLength="81" x="15" y="49.9951">Equivocator</text><rect fill="#FEFECE" filter="url(#f19d0fg0srbuk2)" height="30.2969" style="stroke: #A80036; stroke-width: 1.5;" width="95" x="8" y="358.1641"/><text fill="#000000" font-family="sans-serif" font-size="14" lengthAdjust="spacingAndGlyphs" textLength="81" x="15" y="378.1592">Equivocator</text><rect fill="#FEFECE" filter="url(#f19d0fg0srbuk2)" height="30.2969" style="stroke: #A80036; stroke-width: 1.5;" width="105" x="202" y="30"/><text fill="#000000" font-family="sans-serif" font-size="14" lengthAdjust="spacingAndGlyphs" textLength="91" x="209" y="49.9951">Honest Node</text><rect fill="#FEFECE" filter="url(#f19d0fg0srbuk2)" height="30.2969" style="stroke: #A80036; stroke-width: 1.5;" width="105" x="202" y="358.1641"/><text fill="#000000" font-family="sans-serif" font-size="14" lengthAdjust="spacingAndGlyphs" textLength="91" x="209" y="378.1592">Honest Node</text><text fill="#000000" font-family="sans-serif" font-size="14" lengthAdjust="spacingAndGlyphs" textLength="38" x="490.5" y="61.9951">Block</text><path d="M494.5,13 C494.5,3 512.5,3 512.5,3 C512.5,3 530.5,3 530.5,13 L530.5,39 C530.5,49 512.5,49 512.5,49 C512.5,49 494.5,49 494.5,39 L494.5,13 " fill="#FEFECE" filter="url(#f19d0fg0srbuk2)" style="stroke: #000000; stroke-width: 1.5;"/><path d="M494.5,13 C494.5,23 512.5,23 512.5,23 C512.5,23 530.5,23 530.5,13 " fill="none" style="stroke: #000000; stroke-width: 1.5;"/><text fill="#000000" font-family="sans-serif" font-size="14" lengthAdjust="spacingAndGlyphs" textLength="38" x="490.5" y="371.1592">Block</text><path d="M494.5,384.4609 C494.5,374.4609 512.5,374.4609 512.5,374.4609 C512.5,374.4609 530.5,374.4609 530.5,384.4609 L530.5,410.4609 C530.5,420.4609 512.5,420.4609 512.5,420.4609 C512.5,420.4609 494.5,420.4609 494.5,410.4609 L494.5,384.4609 " fill="#FEFECE" filter="url(#f19d0fg0srbuk2)" style="stroke: #000000; stroke-width: 1.5;"/><path d="M494.5,384.4609 C494.5,394.4609 512.5,394.4609 512.5,394.4609 C512.5,394.4609 530.5,394.4609 530.5,384.4609 " fill="none" style="stroke: #000000; stroke-width: 1.5;"/><polygon fill="#A80036" points="244.5,92.4297,254.5,96.4297,244.5,100.4297,248.5,96.4297" style="stroke: #A80036; stroke-width: 1.0;"/><line style="stroke: #A80036; stroke-width: 1.0;" x1="57.5" x2="250.5" y1="96.4297" y2="96.4297"/><text fill="#000000" font-family="sans-serif" font-size="13" lengthAdjust="spacingAndGlyphs" textLength="95" x="64.5" y="91.3638">Vote Spam #1</text><polygon fill="#A80036" points="500.5,121.5625,510.5,125.5625,500.5,129.5625,504.5,125.5625" style="stroke: #A80036; stroke-width: 1.0;"/><line style="stroke: #A80036; stroke-width: 1.0;" x1="256.5" x2="506.5" y1="125.5625" y2="125.5625"/><text fill="#000000" font-family="sans-serif" font-size="13" lengthAdjust="spacingAndGlyphs" textLength="152" x="263.5" y="120.4966">Vote Spam #1 (Stored)</text><polygon fill="#A80036" points="244.5,150.6953,254.5,154.6953,244.5,158.6953,248.5,154.6953" style="stroke: #A80036; stroke-width: 1.0;"/><line style="stroke: #A80036; stroke-width: 1.0;" x1="57.5" x2="250.5" y1="154.6953" y2="154.6953"/><text fill="#000000" font-family="sans-serif" font-size="13" lengthAdjust="spacingAndGlyphs" textLength="95" x="64.5" y="149.6294">Vote Spam #2</text><polygon fill="#A80036" points="500.5,179.8281,510.5,183.8281,500.5,187.8281,504.5,183.8281" style="stroke: #A80036; stroke-width: 1.0;"/><line style="stroke: #A80036; stroke-width: 1.0;" x1="256.5" x2="506.5" y1="183.8281" y2="183.8281"/><text fill="#000000" font-family="sans-serif" font-size="13" lengthAdjust="spacingAndGlyphs" textLength="152" x="263.5" y="178.7622">Vote Spam #2 (Stored)</text><polygon fill="#A80036" points="244.5,208.9609,254.5,212.9609,244.5,216.9609,248.5,212.9609" style="stroke: #A80036; stroke-width: 1.0;"/><line style="stroke: #A80036; stroke-width: 1.0;" x1="57.5" x2="250.5" y1="212.9609" y2="212.9609"/><text fill="#000000" font-family="sans-serif" font-size="13" lengthAdjust="spacingAndGlyphs" textLength="95" x="64.5" y="207.895">Vote Spam #3</text><polygon fill="#A80036" points="500.5,238.0938,510.5,242.0938,500.5,246.0938,504.5,242.0938" style="stroke: #A80036; stroke-width: 1.0;"/><line style="stroke: #A80036; stroke-width: 1.0;" x1="256.5" x2="506.5" y1="242.0938" y2="242.0938"/><text fill="#000000" font-family="sans-serif" font-size="13" lengthAdjust="spacingAndGlyphs" textLength="152" x="263.5" y="237.0278">Vote Spam #3 (Stored)</text><text fill="#000000" font-family="sans-serif" font-size="11" lengthAdjust="spacingAndGlyphs" textLength="0" x="287" y="274.3042"/><polygon fill="#A80036" points="244.5,308.0313,254.5,312.0313,244.5,316.0313,248.5,312.0313" style="stroke: #A80036; stroke-width: 1.0;"/><line style="stroke: #A80036; stroke-width: 1.0;" x1="57.5" x2="250.5" y1="312.0313" y2="312.0313"/><text fill="#000000" font-family="sans-serif" font-size="13" lengthAdjust="spacingAndGlyphs" textLength="175" x="64.5" y="306.9653">Vote Spam #10000000000</text><polygon fill="#A80036" points="500.5,337.1641,510.5,341.1641,500.5,345.1641,504.5,341.1641" style="stroke: #A80036; stroke-width: 1.0;"/><line style="stroke: #A80036; stroke-width: 1.0;" x1="256.5" x2="506.5" y1="341.1641" y2="341.1641"/><text fill="#000000" font-family="sans-serif" font-size="13" lengthAdjust="spacingAndGlyphs" textLength="232" x="263.5" y="336.0981">Vote Spam #10000000000 (Stored)</text><!--MD5=[13283c389302d0625f8d06dbedef6de0]
@startuml

participant Equivocator
participant Node as "Honest Node"
database Block

Equivocator -> Node: Vote Spam #1
Node -> Block: Vote Spam #1 (Stored)

Equivocator -> Node: Vote Spam #2
Node -> Block: Vote Spam #2 (Stored)

Equivocator -> Node: Vote Spam #3
Node -> Block: Vote Spam #3 (Stored)

... ...

Equivocator -> Node: Vote Spam #10000000000
Node -> Block: Vote Spam #10000000000 (Stored)

@enduml

PlantUML version 1.2020.16(Sun Aug 23 16:20:43 EDT 2020)
(GPL source distribution)
Java Runtime: OpenJDK Runtime Environment
JVM: OpenJDK 64-Bit Server VM
Default Encoding: UTF-8
Language: en
Country: US
--></g></svg>