<svg class="bob" font-family="arial" font-size="14" height="896" width="536" xmlns="http://www.w3.org/2000/svg">
<defs>
<marker id="triangle" markerHeight="8" markerWidth="8" orient="auto" refX="4" refY="2" viewBox="0 0 8 4">
<polygon class="fg_fill" points="0,0 0,4 8,2 0,0"/>
</marker>
<marker id="clear_triangle" markerHeight="10" markerWidth="10" orient="auto" refX="1" refY="7" viewBox="0 0 20 14">
<polygon class="bg_fill fg_stroke" points="2,2 2,12 18,7 2,2"/>
</marker>
<marker id="circle" markerHeight="5" markerWidth="5" orient="auto" refX="10" refY="10" viewBox="0 0 20 20">
<circle class="fg_fill" cx="10" cy="10" r="8"/>
</marker>
<marker id="square" markerHeight="5" markerWidth="5" orient="auto" refX="10" refY="10" viewBox="0 0 20 20">
<rect class="fg_fill" height="20" width="20" x="0" y="0"/>
</marker>
<marker id="open_circle" markerHeight="10" markerWidth="10" orient="auto" refX="10" refY="10" viewBox="0 0 20 20">
<circle class="bg_fill fg_stroke" cx="10" cy="10" r="4"/>
</marker>
<marker id="big_open_circle" markerHeight="20" markerWidth="20" orient="auto" refX="20" refY="20" viewBox="0 0 40 40">
<circle class="bg_fill fg_stroke" cx="20" cy="20" r="6"/>
</marker>
</defs>
<style type="text/css">

rect.backdrop {
    fill: white;
}

.fg_fill {
    fill: black;
}


.bg_fill {
    fill: white;
}

.fg_stroke {
    stroke: black;
    stroke-width: 2;
}

.no_fill {
    fill: none;
}

.dashed {
    stroke-dasharray: 5;
}


text{
    fill: black;
}

line, path {
    stroke-linecap: round;
    stroke-linejoin: miter;
    stroke-opacity: 1;
    fill-opacity: 1;
}




tspan.head{
    fill: none;
    stroke: none;
}
    
</style>
<rect class="backdrop" height="896" width="536" x="0" y="0"/>
<g>
<line class="fg_stroke" x1="28" x2="28" y1="232" y2="536"/>
<line class="fg_stroke" marker-end="url(#triangle)" x1="28" x2="60" y1="232" y2="232"/>
<line class="fg_stroke" x1="28" x2="28" y1="536" y2="680"/>
<line class="fg_stroke" x1="28" x2="68" y1="536" y2="536"/>
<line class="fg_stroke" x1="28" x2="92" y1="680" y2="680"/>
<line class="fg_stroke" x1="68" x2="68" y1="488" y2="536"/>
<line class="fg_stroke" x1="68" x2="68" y1="536" y2="568"/>
<line class="fg_stroke" x1="68" x2="156" y1="568" y2="568"/>
<line class="fg_stroke" x1="92" x2="92" y1="632" y2="680"/>
<line class="fg_stroke" x1="92" x2="92" y1="680" y2="712"/>
<line class="fg_stroke" x1="92" x2="156" y1="712" y2="712"/>
<line class="fg_stroke" marker-end="url(#triangle)" x1="156" x2="156" y1="568" y2="620"/>
<line class="fg_stroke" x1="156" x2="260" y1="568" y2="568"/>
<line class="fg_stroke" marker-end="url(#triangle)" x1="156" x2="156" y1="712" y2="764"/>
<line class="fg_stroke" x1="156" x2="220" y1="712" y2="712"/>
<line class="fg_stroke" x1="220" x2="220" y1="632" y2="712"/>
<line class="fg_stroke" x1="260" x2="260" y1="488" y2="568"/>
<line class="fg_stroke" marker-end="url(#open_circle)" x1="68" x2="156" y1="488" y2="488"/>
<line class="fg_stroke" marker-end="url(#open_circle)" x1="92" x2="156" y1="632" y2="632"/>
<line class="fg_stroke" marker-start="url(#open_circle)" x1="156" x2="260" y1="488" y2="488"/>
<line class="fg_stroke" marker-start="url(#open_circle)" x1="156" x2="220" y1="632" y2="632"/>
</g>
<g>
<line class="fg_stroke" x1="68" x2="156" y1="280" y2="280"/>
<line class="fg_stroke" marker-end="url(#triangle)" x1="156" x2="156" y1="280" y2="332"/>
<line class="fg_stroke" x1="156" x2="260" y1="280" y2="280"/>
<line class="fg_stroke" marker-start="url(#open_circle)" x1="68" x2="68" y1="232" y2="280"/>
<line class="fg_stroke" marker-start="url(#open_circle)" x1="260" x2="260" y1="232" y2="280"/>
<line class="fg_stroke" marker-start="url(#open_circle)" x1="260" x2="264" y1="232" y2="232"/>
</g>
<g>
<line class="fg_stroke" x1="68" x2="68" y1="344" y2="424"/>
<line class="fg_stroke" x1="68" x2="156" y1="424" y2="424"/>
<line class="fg_stroke" marker-end="url(#triangle)" x1="156" x2="156" y1="424" y2="476"/>
<line class="fg_stroke" x1="156" x2="260" y1="424" y2="424"/>
<line class="fg_stroke" x1="260" x2="260" y1="392" y2="424"/>
<line class="fg_stroke" marker-end="url(#triangle)" x1="260" x2="316" y1="392" y2="392"/>
<line class="fg_stroke" marker-end="url(#open_circle)" x1="68" x2="156" y1="344" y2="344"/>
<line class="fg_stroke" marker-start="url(#open_circle)" x1="156" x2="260" y1="344" y2="344"/>
</g>
<g>
<line class="fg_stroke" x1="92" x2="92" y1="780" y2="784"/>
<line class="fg_stroke dashed" x1="92" x2="92" y1="784" y2="864"/>
<path class="fg_stroke no_fill" d="M 96 776 A 4 4 0 0 0 92 780"/>
</g>
<g>
<line class="fg_stroke" x1="92" x2="92" y1="868" y2="864"/>
<path class="fg_stroke no_fill" d="M 92 868 A 4 4 0 0 0 96 872"/>
</g>
<g>
<line class="fg_stroke" x1="124" x2="128" y1="56" y2="48"/>
<line class="fg_stroke" x1="124" x2="128" y1="56" y2="64"/>
<line class="fg_stroke" x1="136" x2="124" y1="32" y2="56"/>
<line class="fg_stroke" x1="136" x2="176" y1="32" y2="32"/>
<line class="fg_stroke" x1="136" x2="124" y1="80" y2="56"/>
<line class="fg_stroke" x1="136" x2="176" y1="80" y2="80"/>
<line class="fg_stroke" x1="176" x2="188" y1="32" y2="56"/>
<line class="fg_stroke" x1="176" x2="188" y1="80" y2="56"/>
<line class="fg_stroke" x1="188" x2="184" y1="56" y2="48"/>
<line class="fg_stroke" x1="188" x2="184" y1="56" y2="64"/>
</g>
<g>
<line class="fg_stroke" x1="152" x2="156" y1="80" y2="80"/>
<line class="fg_stroke" x1="156" x2="156" y1="80" y2="96"/>
<line class="fg_stroke" x1="156" x2="160" y1="80" y2="80"/>
<line class="fg_stroke" marker-end="url(#triangle)" x1="156" x2="156" y1="96" y2="188"/>
</g>
<g>
<line class="fg_stroke" marker-end="url(#triangle)" x1="212" x2="212" y1="120" y2="188"/>
<line class="fg_stroke" x1="212" x2="516" y1="120" y2="120"/>
<line class="fg_stroke" x1="516" x2="516" y1="120" y2="632"/>
</g>
<g>
<line class="fg_stroke" x1="220" x2="220" y1="780" y2="784"/>
<line class="fg_stroke dashed" x1="220" x2="220" y1="784" y2="864"/>
<path class="fg_stroke no_fill" d="M 220 780 A 4 4 0 0 0 216 776"/>
</g>
<g>
<line class="fg_stroke" x1="220" x2="220" y1="868" y2="864"/>
<path class="fg_stroke no_fill" d="M 216 872 A 4 4 0 0 0 220 868"/>
</g>
<g>
<line class="fg_stroke" x1="260" x2="260" y1="344" y2="392"/>
</g>
<g>
<line class="fg_stroke" marker-end="url(#triangle)" x1="272" x2="268" y1="232" y2="232"/>
<line class="fg_stroke" x1="272" x2="404" y1="232" y2="232"/>
<line class="fg_stroke" x1="404" x2="404" y1="232" y2="344"/>
<line class="fg_stroke" x1="404" x2="476" y1="344" y2="344"/>
<line class="fg_stroke" x1="476" x2="476" y1="344" y2="424"/>
</g>
<g>
<line class="fg_stroke" x1="324" x2="404" y1="344" y2="344"/>
<line class="fg_stroke" marker-end="url(#open_circle)" x1="324" x2="324" y1="344" y2="392"/>
<line class="fg_stroke" marker-start="url(#open_circle)" x1="324" x2="320" y1="392" y2="392"/>
<line class="fg_stroke" marker-start="url(#open_circle)" x1="324" x2="324" y1="392" y2="424"/>
</g>
<g>
<line class="fg_stroke" x1="324" x2="404" y1="424" y2="424"/>
<line class="fg_stroke" marker-end="url(#triangle)" x1="404" x2="404" y1="424" y2="476"/>
<line class="fg_stroke" x1="404" x2="476" y1="424" y2="424"/>
</g>
<g>
<line class="fg_stroke" x1="324" x2="324" y1="488" y2="568"/>
<line class="fg_stroke" marker-end="url(#open_circle)" x1="324" x2="404" y1="488" y2="488"/>
<line class="fg_stroke" marker-end="url(#open_circle)" x1="324" x2="404" y1="568" y2="568"/>
<line class="fg_stroke" marker-start="url(#open_circle)" x1="404" x2="476" y1="488" y2="488"/>
<line class="fg_stroke" marker-start="url(#open_circle)" x1="404" x2="404" y1="568" y2="632"/>
<line class="fg_stroke" marker-start="url(#open_circle)" x1="404" x2="476" y1="568" y2="568"/>
</g>
<g>
<line class="fg_stroke" x1="352" x2="360" y1="102" y2="102"/>
</g>
<g>
<line class="fg_stroke" x1="352" x2="360" y1="106" y2="106"/>
</g>
<g>
<line class="fg_stroke" x1="404" x2="516" y1="632" y2="632"/>
</g>
<g>
<line class="fg_stroke" x1="476" x2="476" y1="488" y2="568"/>
</g>
<g>
<line class="fg_stroke dashed" x1="96" x2="152" y1="776" y2="776"/>
<line class="fg_stroke" marker-start="url(#open_circle)" x1="156" x2="152" y1="776" y2="776"/>
<line class="fg_stroke" marker-start="url(#open_circle)" x1="156" x2="160" y1="776" y2="776"/>
</g>
<g>
<line class="fg_stroke dashed" x1="96" x2="216" y1="872" y2="872"/>
</g>
<g>
<line class="fg_stroke dashed" x1="160" x2="216" y1="776" y2="776"/>
</g>
<g>
<text class="fg_fill" x="41" y="556">
No
</text>
</g>
<g>
<text class="fg_fill" x="41" y="700">
No
</text>
</g>
<g>
<text class="fg_fill" x="89" y="236">
Get
</text>
</g>
<g>
<text class="fg_fill" x="89" y="252">
For
</text>
</g>
<g>
<text class="fg_fill" x="89" y="380">
Peers
</text>
</g>
<g>
<text class="fg_fill" x="89" y="524">
Last
</text>
</g>
<g>
<text class="fg_fill" x="89" y="540">
Current
</text>
</g>
<g>
<text class="fg_fill" x="105" y="396">
at
</text>
</g>
<g>
<text class="fg_fill" x="113" y="668">
Era
</text>
</g>
<g>
<text class="fg_fill" x="113" y="684">
Recently?
</text>
</g>
<g>
<text class="fg_fill" x="121" y="236">
Signatures/Hash
</text>
</g>
<g>
<text class="fg_fill" x="121" y="252">
Block
</text>
</g>
<g>
<text class="fg_fill" x="121" y="812">
Switch
</text>
</g>
<g>
<text class="fg_fill" x="121" y="828">
Highway
</text>
</g>
<g>
<text class="fg_fill" x="121" y="844">
Consensus
</text>
</g>
<g>
<text class="fg_fill" x="129" y="396">
that
</text>
</g>
<g>
<text class="fg_fill" x="129" y="524">
Block
</text>
</g>
<g>
<text class="fg_fill" x="137" y="60">
Start
</text>
</g>
<g>
<text class="fg_fill" x="137" y="380">
Report
</text>
</g>
<g>
<text class="fg_fill" x="145" y="668">
Started
</text>
</g>
<g>
<text class="fg_fill" x="153" y="540">
Timestamp?
</text>
</g>
<g>
<text class="fg_fill" x="169" y="252">
Height
</text>
</g>
<g>
<text class="fg_fill" x="169" y="396">
Height?
</text>
</g>
<g>
<text class="fg_fill" x="169" y="460">
No
</text>
</g>
<g>
<text class="fg_fill" x="169" y="604">
Yes
</text>
</g>
<g>
<text class="fg_fill" x="169" y="748">
Yes
</text>
</g>
<g>
<text class="fg_fill" x="177" y="524">
Near
</text>
</g>
<g>
<text class="fg_fill" x="177" y="812">
to
</text>
</g>
<g>
<text class="fg_fill" x="193" y="380">
Block
</text>
</g>
<g>
<text class="fg_fill" x="225" y="252">
n
</text>
</g>
<g>
<text class="fg_fill" x="281" y="412">
Yes
</text>
</g>
<g>
<text class="fg_fill" x="305" y="108">
Set
</text>
</g>
<g>
<text class="fg_fill" x="337" y="108">
n
</text>
</g>
<g>
<text class="fg_fill" x="361" y="396">
Signatures?
</text>
</g>
<g>
<text class="fg_fill" x="361" y="524">
Get
</text>
</g>
<g>
<text class="fg_fill" x="361" y="540">
Using
</text>
</g>
<g>
<text class="fg_fill" x="369" y="108">
n
</text>
</g>
<g>
<text class="fg_fill" x="377" y="380">
Enough
</text>
</g>
<g>
<text class="fg_fill" x="385" y="108">
+
</text>
</g>
<g>
<text class="fg_fill" x="393" y="524">
Block
</text>
</g>
<g>
<text class="fg_fill" x="401" y="108">
1
</text>
</g>
<g>
<text class="fg_fill" x="409" y="540">
Hash
</text>
</g>
<g>
<text class="fg_fill" x="417" y="300">
No
</text>
</g>
<g>
<text class="fg_fill" x="417" y="460">
Yes
</text>
</g>
<g>
<line class="fg_stroke" marker-end="url(#open_circle)" x1="68" x2="68" y1="200" y2="232"/>
<line class="fg_stroke" marker-end="url(#open_circle)" x1="68" x2="156" y1="200" y2="200"/>
<line class="fg_stroke" marker-start="url(#open_circle)" x1="68" x2="64" y1="232" y2="232"/>
<line class="fg_stroke" marker-end="url(#open_circle)" marker-start="url(#open_circle)" x1="156" x2="212" y1="200" y2="200"/>
<line class="fg_stroke" marker-start="url(#open_circle)" x1="212" x2="260" y1="200" y2="200"/>
<line class="fg_stroke" marker-end="url(#open_circle)" x1="260" x2="260" y1="200" y2="232"/>
</g>
</svg>