<svg class="bob" font-family="arial" font-size="14" height="832" width="480" xmlns="http://www.w3.org/2000/svg">
<defs>
<marker id="triangle" markerHeight="8" markerWidth="8" orient="auto" refX="4" refY="2" viewBox="0 0 8 4">
<polygon class="fg_fill" points="0,0 0,4 8,2 0,0"/>
</marker>
<marker id="clear_triangle" markerHeight="10" markerWidth="10" orient="auto" refX="1" refY="7" viewBox="0 0 20 14">
<polygon class="bg_fill fg_stroke" points="2,2 2,12 18,7 2,2"/>
</marker>
<marker id="circle" markerHeight="5" markerWidth="5" orient="auto" refX="10" refY="10" viewBox="0 0 20 20">
<circle class="fg_fill" cx="10" cy="10" r="8"/>
</marker>
<marker id="square" markerHeight="5" markerWidth="5" orient="auto" refX="10" refY="10" viewBox="0 0 20 20">
<rect class="fg_fill" height="20" width="20" x="0" y="0"/>
</marker>
<marker id="open_circle" markerHeight="10" markerWidth="10" orient="auto" refX="10" refY="10" viewBox="0 0 20 20">
<circle class="bg_fill fg_stroke" cx="10" cy="10" r="4"/>
</marker>
<marker id="big_open_circle" markerHeight="20" markerWidth="20" orient="auto" refX="20" refY="20" viewBox="0 0 40 40">
<circle class="bg_fill fg_stroke" cx="20" cy="20" r="6"/>
</marker>
</defs>
<style type="text/css">

rect.backdrop {
    fill: white;
}

.fg_fill {
    fill: black;
}


.bg_fill {
    fill: white;
}

.fg_stroke {
    stroke: black;
    stroke-width: 2;
}

.no_fill {
    fill: none;
}

.dashed {
    stroke-dasharray: 5;
}


text{
    fill: black;
}

line, path {
    stroke-linecap: round;
    stroke-linejoin: miter;
    stroke-opacity: 1;
    fill-opacity: 1;
}




tspan.head{
    fill: none;
    stroke: none;
}
    
</style>
<rect class="backdrop" height="832" width="480" x="0" y="0"/>
<g>
<line class="fg_stroke" x1="28" x2="28" y1="168" y2="472"/>
<line class="fg_stroke" marker-end="url(#triangle)" x1="28" x2="60" y1="168" y2="168"/>
<line class="fg_stroke" x1="28" x2="28" y1="472" y2="616"/>
<line class="fg_stroke" x1="28" x2="68" y1="472" y2="472"/>
<line class="fg_stroke" x1="28" x2="92" y1="616" y2="616"/>
<line class="fg_stroke" x1="68" x2="68" y1="424" y2="472"/>
<line class="fg_stroke" x1="68" x2="68" y1="472" y2="504"/>
<line class="fg_stroke" x1="68" x2="156" y1="504" y2="504"/>
<line class="fg_stroke" x1="92" x2="92" y1="568" y2="616"/>
<line class="fg_stroke" x1="92" x2="92" y1="616" y2="648"/>
<line class="fg_stroke" x1="92" x2="156" y1="648" y2="648"/>
<line class="fg_stroke" marker-end="url(#triangle)" x1="156" x2="156" y1="504" y2="556"/>
<line class="fg_stroke" x1="156" x2="260" y1="504" y2="504"/>
<line class="fg_stroke" marker-end="url(#triangle)" x1="156" x2="156" y1="648" y2="700"/>
<line class="fg_stroke" x1="156" x2="220" y1="648" y2="648"/>
<line class="fg_stroke" x1="220" x2="220" y1="568" y2="648"/>
<line class="fg_stroke" x1="260" x2="260" y1="424" y2="504"/>
<line class="fg_stroke" marker-end="url(#open_circle)" x1="68" x2="156" y1="424" y2="424"/>
<line class="fg_stroke" marker-end="url(#open_circle)" x1="92" x2="156" y1="568" y2="568"/>
<line class="fg_stroke" marker-start="url(#open_circle)" x1="156" x2="260" y1="424" y2="424"/>
<line class="fg_stroke" marker-start="url(#open_circle)" x1="156" x2="220" y1="568" y2="568"/>
</g>
<g>
<line class="fg_stroke" x1="68" x2="156" y1="216" y2="216"/>
<line class="fg_stroke" marker-end="url(#triangle)" x1="156" x2="156" y1="216" y2="268"/>
<line class="fg_stroke" x1="156" x2="260" y1="216" y2="216"/>
<line class="fg_stroke" marker-start="url(#open_circle)" x1="68" x2="68" y1="168" y2="216"/>
<line class="fg_stroke" marker-start="url(#open_circle)" x1="260" x2="260" y1="168" y2="216"/>
<line class="fg_stroke" marker-start="url(#open_circle)" x1="260" x2="264" y1="168" y2="168"/>
</g>
<g>
<line class="fg_stroke" x1="68" x2="68" y1="280" y2="360"/>
<line class="fg_stroke" x1="68" x2="156" y1="360" y2="360"/>
<line class="fg_stroke" marker-end="url(#triangle)" x1="156" x2="156" y1="360" y2="412"/>
<line class="fg_stroke" x1="156" x2="260" y1="360" y2="360"/>
<line class="fg_stroke" x1="260" x2="260" y1="328" y2="360"/>
<line class="fg_stroke" marker-end="url(#triangle)" x1="260" x2="316" y1="328" y2="328"/>
<line class="fg_stroke" marker-end="url(#open_circle)" x1="68" x2="156" y1="280" y2="280"/>
<line class="fg_stroke" marker-start="url(#open_circle)" x1="156" x2="260" y1="280" y2="280"/>
</g>
<g>
<line class="fg_stroke" x1="92" x2="92" y1="716" y2="720"/>
<line class="fg_stroke dashed" x1="92" x2="92" y1="720" y2="800"/>
<path class="fg_stroke no_fill" d="M 96 712 A 4 4 0 0 0 92 716"/>
</g>
<g>
<line class="fg_stroke" x1="92" x2="92" y1="804" y2="800"/>
<path class="fg_stroke no_fill" d="M 92 804 A 4 4 0 0 0 96 808"/>
</g>
<g>
<line class="fg_stroke" x1="124" x2="128" y1="56" y2="48"/>
<line class="fg_stroke" x1="124" x2="128" y1="56" y2="64"/>
<line class="fg_stroke" x1="136" x2="124" y1="32" y2="56"/>
<line class="fg_stroke" x1="136" x2="176" y1="32" y2="32"/>
<line class="fg_stroke" x1="136" x2="124" y1="80" y2="56"/>
<line class="fg_stroke" x1="136" x2="176" y1="80" y2="80"/>
<line class="fg_stroke" x1="176" x2="188" y1="32" y2="56"/>
<line class="fg_stroke" x1="176" x2="188" y1="80" y2="56"/>
<line class="fg_stroke" x1="188" x2="184" y1="56" y2="48"/>
<line class="fg_stroke" x1="188" x2="184" y1="56" y2="64"/>
</g>
<g>
<line class="fg_stroke" x1="152" x2="156" y1="80" y2="80"/>
<line class="fg_stroke" x1="156" x2="156" y1="80" y2="96"/>
<line class="fg_stroke" x1="156" x2="160" y1="80" y2="80"/>
<line class="fg_stroke" marker-end="url(#triangle)" x1="156" x2="156" y1="96" y2="124"/>
</g>
<g>
<line class="fg_stroke" x1="220" x2="220" y1="716" y2="720"/>
<line class="fg_stroke dashed" x1="220" x2="220" y1="720" y2="800"/>
<path class="fg_stroke no_fill" d="M 220 716 A 4 4 0 0 0 216 712"/>
</g>
<g>
<line class="fg_stroke" x1="220" x2="220" y1="804" y2="800"/>
<path class="fg_stroke no_fill" d="M 216 808 A 4 4 0 0 0 220 804"/>
</g>
<g>
<line class="fg_stroke" x1="260" x2="260" y1="280" y2="328"/>
</g>
<g>
<line class="fg_stroke" marker-end="url(#triangle)" x1="272" x2="268" y1="168" y2="168"/>
<line class="fg_stroke" x1="272" x2="404" y1="168" y2="168"/>
<line class="fg_stroke" x1="404" x2="404" y1="168" y2="280"/>
<line class="fg_stroke" x1="404" x2="476" y1="280" y2="280"/>
<line class="fg_stroke" x1="476" x2="476" y1="280" y2="360"/>
</g>
<g>
<line class="fg_stroke" x1="324" x2="404" y1="280" y2="280"/>
<line class="fg_stroke" marker-end="url(#open_circle)" x1="324" x2="324" y1="280" y2="328"/>
<line class="fg_stroke" marker-start="url(#open_circle)" x1="324" x2="320" y1="328" y2="328"/>
<line class="fg_stroke" marker-start="url(#open_circle)" x1="324" x2="324" y1="328" y2="360"/>
</g>
<g>
<line class="fg_stroke" x1="324" x2="404" y1="360" y2="360"/>
<line class="fg_stroke" marker-end="url(#triangle)" x1="404" x2="404" y1="360" y2="412"/>
<line class="fg_stroke" x1="404" x2="476" y1="360" y2="360"/>
</g>
<g>
<line class="fg_stroke" x1="324" x2="324" y1="428" y2="432"/>
<line class="fg_stroke dashed" x1="324" x2="324" y1="432" y2="496"/>
<path class="fg_stroke no_fill" d="M 328 424 A 4 4 0 0 0 324 428"/>
</g>
<g>
<line class="fg_stroke" x1="324" x2="324" y1="500" y2="496"/>
<path class="fg_stroke no_fill" d="M 324 500 A 4 4 0 0 0 328 504"/>
</g>
<g>
<line class="fg_stroke" x1="476" x2="476" y1="428" y2="432"/>
<line class="fg_stroke dashed" x1="476" x2="476" y1="432" y2="496"/>
<path class="fg_stroke no_fill" d="M 476 428 A 4 4 0 0 0 472 424"/>
</g>
<g>
<line class="fg_stroke" x1="476" x2="476" y1="500" y2="496"/>
<path class="fg_stroke no_fill" d="M 472 504 A 4 4 0 0 0 476 500"/>
</g>
<g>
<line class="fg_stroke dashed" x1="96" x2="152" y1="712" y2="712"/>
<line class="fg_stroke" marker-start="url(#open_circle)" x1="156" x2="152" y1="712" y2="712"/>
<line class="fg_stroke" marker-start="url(#open_circle)" x1="156" x2="160" y1="712" y2="712"/>
</g>
<g>
<line class="fg_stroke dashed" x1="96" x2="216" y1="808" y2="808"/>
</g>
<g>
<line class="fg_stroke dashed" x1="160" x2="216" y1="712" y2="712"/>
</g>
<g>
<line class="fg_stroke dashed" x1="328" x2="400" y1="424" y2="424"/>
<line class="fg_stroke" marker-start="url(#open_circle)" x1="404" x2="400" y1="424" y2="424"/>
<line class="fg_stroke" marker-start="url(#open_circle)" x1="404" x2="408" y1="424" y2="424"/>
</g>
<g>
<line class="fg_stroke dashed" x1="328" x2="472" y1="504" y2="504"/>
</g>
<g>
<line class="fg_stroke dashed" x1="408" x2="472" y1="424" y2="424"/>
</g>
<g>
<text class="fg_fill" x="41" y="492">
No
</text>
</g>
<g>
<text class="fg_fill" x="41" y="636">
No
</text>
</g>
<g>
<text class="fg_fill" x="89" y="172">
Get
</text>
</g>
<g>
<text class="fg_fill" x="89" y="188">
For
</text>
</g>
<g>
<text class="fg_fill" x="89" y="316">
Peers
</text>
</g>
<g>
<text class="fg_fill" x="89" y="460">
Last
</text>
</g>
<g>
<text class="fg_fill" x="89" y="476">
Current
</text>
</g>
<g>
<text class="fg_fill" x="105" y="332">
at
</text>
</g>
<g>
<text class="fg_fill" x="113" y="604">
Era
</text>
</g>
<g>
<text class="fg_fill" x="113" y="620">
Recently?
</text>
</g>
<g>
<text class="fg_fill" x="121" y="172">
Signatures/Hash
</text>
</g>
<g>
<text class="fg_fill" x="121" y="188">
Block
</text>
</g>
<g>
<text class="fg_fill" x="121" y="748">
Switch
</text>
</g>
<g>
<text class="fg_fill" x="121" y="764">
Highway
</text>
</g>
<g>
<text class="fg_fill" x="121" y="780">
Consensus
</text>
</g>
<g>
<text class="fg_fill" x="129" y="332">
that
</text>
</g>
<g>
<text class="fg_fill" x="129" y="460">
Block
</text>
</g>
<g>
<text class="fg_fill" x="137" y="60">
Start
</text>
</g>
<g>
<text class="fg_fill" x="137" y="316">
Report
</text>
</g>
<g>
<text class="fg_fill" x="145" y="604">
Started
</text>
</g>
<g>
<text class="fg_fill" x="153" y="476">
Timestamp?
</text>
</g>
<g>
<text class="fg_fill" x="169" y="188">
Height
</text>
</g>
<g>
<text class="fg_fill" x="169" y="332">
Height?
</text>
</g>
<g>
<text class="fg_fill" x="169" y="396">
No
</text>
</g>
<g>
<text class="fg_fill" x="169" y="540">
Yes
</text>
</g>
<g>
<text class="fg_fill" x="169" y="684">
Yes
</text>
</g>
<g>
<text class="fg_fill" x="177" y="460">
Near
</text>
</g>
<g>
<text class="fg_fill" x="177" y="748">
to
</text>
</g>
<g>
<text class="fg_fill" x="193" y="316">
Block
</text>
</g>
<g>
<text class="fg_fill" x="225" y="188">
n
</text>
</g>
<g>
<text class="fg_fill" x="281" y="348">
Yes
</text>
</g>
<g>
<text class="fg_fill" x="361" y="332">
Signatures?
</text>
</g>
<g>
<text class="fg_fill" x="361" y="460">
Get
</text>
</g>
<g>
<text class="fg_fill" x="361" y="476">
Using
</text>
</g>
<g>
<text class="fg_fill" x="377" y="316">
Enough
</text>
</g>
<g>
<text class="fg_fill" x="393" y="460">
Block
</text>
</g>
<g>
<text class="fg_fill" x="409" y="476">
Hash
</text>
</g>
<g>
<text class="fg_fill" x="417" y="236">
No
</text>
</g>
<g>
<text class="fg_fill" x="417" y="396">
Yes
</text>
</g>
<g>
<line class="fg_stroke" marker-end="url(#open_circle)" x1="68" x2="68" y1="136" y2="168"/>
<line class="fg_stroke" marker-end="url(#open_circle)" x1="68" x2="156" y1="136" y2="136"/>
<line class="fg_stroke" marker-start="url(#open_circle)" x1="68" x2="64" y1="168" y2="168"/>
<line class="fg_stroke" marker-start="url(#open_circle)" x1="156" x2="260" y1="136" y2="136"/>
<line class="fg_stroke" marker-end="url(#open_circle)" x1="260" x2="260" y1="136" y2="168"/>
</g>
</svg>