<svg class="bob" font-family="arial" font-size="14" height="720" width="504" xmlns="http://www.w3.org/2000/svg">
<defs>
<marker id="triangle" markerHeight="8" markerWidth="8" orient="auto" refX="4" refY="2" viewBox="0 0 8 4">
<polygon class="fg_fill" points="0,0 0,4 8,2 0,0"/>
</marker>
<marker id="clear_triangle" markerHeight="10" markerWidth="10" orient="auto" refX="1" refY="7" viewBox="0 0 20 14">
<polygon class="bg_fill fg_stroke" points="2,2 2,12 18,7 2,2"/>
</marker>
<marker id="circle" markerHeight="5" markerWidth="5" orient="auto" refX="10" refY="10" viewBox="0 0 20 20">
<circle class="fg_fill" cx="10" cy="10" r="8"/>
</marker>
<marker id="square" markerHeight="5" markerWidth="5" orient="auto" refX="10" refY="10" viewBox="0 0 20 20">
<rect class="fg_fill" height="20" width="20" x="0" y="0"/>
</marker>
<marker id="open_circle" markerHeight="10" markerWidth="10" orient="auto" refX="10" refY="10" viewBox="0 0 20 20">
<circle class="bg_fill fg_stroke" cx="10" cy="10" r="4"/>
</marker>
<marker id="big_open_circle" markerHeight="20" markerWidth="20" orient="auto" refX="20" refY="20" viewBox="0 0 40 40">
<circle class="bg_fill fg_stroke" cx="20" cy="20" r="6"/>
</marker>
</defs>
<style type="text/css">

rect.backdrop {
    fill: white;
}

.fg_fill {
    fill: black;
}


.bg_fill {
    fill: white;
}

.fg_stroke {
    stroke: black;
    stroke-width: 2;
}

.no_fill {
    fill: none;
}

.dashed {
    stroke-dasharray: 5;
}


text{
    fill: black;
}

line, path {
    stroke-linecap: round;
    stroke-linejoin: miter;
    stroke-opacity: 1;
    fill-opacity: 1;
}




tspan.head{
    fill: none;
    stroke: none;
}
    
</style>
<rect class="backdrop" height="720" width="504" x="0" y="0"/>
<g>
<line class="fg_stroke" x1="8" x2="20" y1="136" y2="136"/>
<line class="fg_stroke" x1="20" x2="20" y1="136" y2="160"/>
<line class="fg_stroke" x1="20" x2="32" y1="136" y2="136"/>
</g>
<g>
<line class="fg_stroke" x1="12" x2="12" y1="224" y2="256"/>
</g>
<g>
<line class="fg_stroke" x1="12" x2="12" y1="280" y2="312"/>
<line class="fg_stroke" x1="12" x2="32" y1="280" y2="280"/>
<line class="fg_stroke" x1="12" x2="32" y1="312" y2="312"/>
</g>
<g>
<line class="fg_stroke" x1="12" x2="32" y1="296" y2="296"/>
</g>
<g>
<line class="fg_stroke" x1="16" x2="24" y1="224" y2="240"/>
<line class="fg_stroke" x1="24" x2="32" y1="240" y2="224"/>
</g>
<g>
<line class="fg_stroke" x1="20" x2="20" y1="176" y2="208"/>
</g>
<g>
<line class="fg_stroke" x1="20" x2="20" y1="472" y2="504"/>
<line class="fg_stroke" x1="20" x2="92" y1="472" y2="472"/>
<line class="fg_stroke" x1="20" x2="20" y1="504" y2="696"/>
<line class="fg_stroke" x1="20" x2="92" y1="504" y2="504"/>
<line class="fg_stroke" x1="20" x2="396" y1="696" y2="696"/>
<line class="fg_stroke" x1="92" x2="92" y1="472" y2="504"/>
<line class="fg_stroke" x1="92" x2="396" y1="472" y2="472"/>
<line class="fg_stroke" x1="396" x2="396" y1="472" y2="696"/>
</g>
<g>
<line class="fg_stroke" x1="36" x2="36" y1="224" y2="256"/>
</g>
<g>
<line class="fg_stroke" x1="44" x2="44" y1="556" y2="560"/>
<line class="fg_stroke dashed" x1="44" x2="44" y1="560" y2="576"/>
<path class="fg_stroke no_fill" d="M 48 552 A 4 4 0 0 0 44 556"/>
</g>
<g>
<line class="fg_stroke" x1="44" x2="44" y1="580" y2="576"/>
<path class="fg_stroke no_fill" d="M 44 580 A 4 4 0 0 0 48 584"/>
</g>
<g>
<line class="fg_stroke" x1="56" x2="64" y1="64" y2="80"/>
<line class="fg_stroke" x1="56" x2="72" y1="64" y2="64"/>
<line class="fg_stroke" x1="64" x2="72" y1="80" y2="64"/>
</g>
<g>
<line class="fg_stroke" x1="56" x2="64" y1="96" y2="112"/>
<line class="fg_stroke" x1="56" x2="72" y1="96" y2="96"/>
<line class="fg_stroke" x1="64" x2="72" y1="112" y2="96"/>
</g>
<g>
<line class="fg_stroke" x1="56" x2="64" y1="128" y2="144"/>
<line class="fg_stroke" x1="56" x2="72" y1="128" y2="128"/>
<line class="fg_stroke" x1="64" x2="72" y1="144" y2="128"/>
</g>
<g>
<line class="fg_stroke" x1="56" x2="64" y1="160" y2="176"/>
<line class="fg_stroke" x1="56" x2="72" y1="160" y2="160"/>
<line class="fg_stroke" x1="64" x2="72" y1="176" y2="160"/>
</g>
<g>
<line class="fg_stroke" x1="56" x2="64" y1="192" y2="208"/>
<line class="fg_stroke" x1="56" x2="72" y1="192" y2="192"/>
<line class="fg_stroke" x1="64" x2="72" y1="208" y2="192"/>
</g>
<g>
<line class="fg_stroke" x1="56" x2="64" y1="224" y2="240"/>
<line class="fg_stroke" x1="56" x2="72" y1="224" y2="224"/>
<line class="fg_stroke" x1="64" x2="72" y1="240" y2="224"/>
</g>
<g>
<line class="fg_stroke" x1="56" x2="64" y1="256" y2="272"/>
<line class="fg_stroke" x1="56" x2="72" y1="256" y2="256"/>
<line class="fg_stroke" x1="64" x2="72" y1="272" y2="256"/>
</g>
<g>
<line class="fg_stroke" x1="56" x2="64" y1="288" y2="304"/>
<line class="fg_stroke" x1="56" x2="72" y1="288" y2="288"/>
<line class="fg_stroke" x1="64" x2="72" y1="304" y2="288"/>
</g>
<g>
<line class="fg_stroke" x1="56" x2="64" y1="320" y2="336"/>
<line class="fg_stroke" x1="56" x2="72" y1="320" y2="320"/>
<line class="fg_stroke" x1="64" x2="72" y1="336" y2="320"/>
</g>
<g>
<line class="fg_stroke" x1="56" x2="64" y1="352" y2="368"/>
<line class="fg_stroke" x1="56" x2="72" y1="352" y2="352"/>
<line class="fg_stroke" x1="64" x2="72" y1="368" y2="352"/>
</g>
<g>
<line class="fg_stroke" x1="56" x2="64" y1="384" y2="400"/>
<line class="fg_stroke" x1="56" x2="72" y1="384" y2="384"/>
<line class="fg_stroke" x1="64" x2="72" y1="400" y2="384"/>
</g>
<g>
<line class="fg_stroke" x1="56" x2="64" y1="416" y2="432"/>
<line class="fg_stroke" x1="56" x2="72" y1="416" y2="416"/>
<line class="fg_stroke" x1="64" x2="72" y1="432" y2="416"/>
</g>
<g>
<line class="fg_stroke" x1="84" x2="84" y1="556" y2="560"/>
<line class="fg_stroke dashed" x1="84" x2="84" y1="560" y2="576"/>
<path class="fg_stroke no_fill" d="M 84 556 A 4 4 0 0 0 80 552"/>
</g>
<g>
<line class="fg_stroke" x1="84" x2="84" y1="580" y2="576"/>
<path class="fg_stroke no_fill" d="M 80 584 A 4 4 0 0 0 84 580"/>
</g>
<g>
<line class="fg_stroke" x1="100" x2="100" y1="76" y2="80"/>
<line class="fg_stroke dashed" x1="100" x2="100" y1="80" y2="96"/>
<path class="fg_stroke no_fill" d="M 104 72 A 4 4 0 0 0 100 76"/>
</g>
<g>
<line class="fg_stroke" x1="100" x2="100" y1="100" y2="96"/>
<path class="fg_stroke no_fill" d="M 100 100 A 4 4 0 0 0 104 104"/>
</g>
<g>
<line class="fg_stroke" x1="100" x2="100" y1="332" y2="336"/>
<line class="fg_stroke dashed" x1="100" x2="100" y1="336" y2="352"/>
<path class="fg_stroke no_fill" d="M 104 328 A 4 4 0 0 0 100 332"/>
</g>
<g>
<line class="fg_stroke" x1="100" x2="100" y1="356" y2="352"/>
<path class="fg_stroke no_fill" d="M 100 356 A 4 4 0 0 0 104 360"/>
</g>
<g>
<line class="fg_stroke" x1="116" x2="116" y1="204" y2="208"/>
<line class="fg_stroke dashed" x1="116" x2="116" y1="208" y2="224"/>
<path class="fg_stroke no_fill" d="M 120 200 A 4 4 0 0 0 116 204"/>
</g>
<g>
<line class="fg_stroke" x1="116" x2="116" y1="228" y2="224"/>
<path class="fg_stroke no_fill" d="M 116 228 A 4 4 0 0 0 120 232"/>
</g>
<g>
<line class="fg_stroke" x1="164" x2="164" y1="76" y2="80"/>
<line class="fg_stroke dashed" x1="164" x2="164" y1="80" y2="96"/>
<path class="fg_stroke no_fill" d="M 164 76 A 4 4 0 0 0 160 72"/>
</g>
<g>
<line class="fg_stroke" x1="164" x2="164" y1="100" y2="96"/>
<path class="fg_stroke no_fill" d="M 160 104 A 4 4 0 0 0 164 100"/>
</g>
<g>
<line class="fg_stroke" x1="164" x2="164" y1="204" y2="208"/>
<line class="fg_stroke dashed" x1="164" x2="164" y1="208" y2="224"/>
<path class="fg_stroke no_fill" d="M 164 204 A 4 4 0 0 0 160 200"/>
</g>
<g>
<line class="fg_stroke" x1="164" x2="164" y1="228" y2="224"/>
<path class="fg_stroke no_fill" d="M 160 232 A 4 4 0 0 0 164 228"/>
</g>
<g>
<line class="fg_stroke" x1="164" x2="164" y1="332" y2="336"/>
<line class="fg_stroke dashed" x1="164" x2="164" y1="336" y2="352"/>
<path class="fg_stroke no_fill" d="M 164 332 A 4 4 0 0 0 160 328"/>
</g>
<g>
<line class="fg_stroke" x1="164" x2="164" y1="356" y2="352"/>
<path class="fg_stroke no_fill" d="M 160 360 A 4 4 0 0 0 164 356"/>
</g>
<g>
<line class="fg_stroke" x1="200" x2="204" y1="88" y2="88"/>
<line class="fg_stroke dashed" x1="168" x2="200" y1="88" y2="88"/>
</g>
<g>
<line class="fg_stroke" x1="200" x2="236" y1="104" y2="104"/>
<line class="fg_stroke" marker-end="url(#square)" x1="236" x2="236" y1="104" y2="136"/>
<line class="fg_stroke" x1="236" x2="256" y1="104" y2="104"/>
<line class="fg_stroke" marker-end="url(#square)" marker-start="url(#square)" x1="236" x2="236" y1="136" y2="168"/>
<line class="fg_stroke" marker-start="url(#square)" x1="236" x2="236" y1="168" y2="200"/>
<line class="fg_stroke" x1="236" x2="272" y1="200" y2="200"/>
<path class="fg_stroke no_fill" d="M 198 100 A 4 4 0 0 0 200 104"/>
<path class="fg_stroke no_fill" d="M 256 104 A 8 8 0 0 0 262 100"/>
<path class="fg_stroke no_fill" d="M 274 204 A 4 4 0 0 0 272 200"/>
</g>
<g>
<line class="fg_stroke" x1="200" x2="204" y1="216" y2="216"/>
<line class="fg_stroke dashed" x1="168" x2="200" y1="216" y2="216"/>
</g>
<g>
<line class="fg_stroke" x1="200" x2="236" y1="232" y2="232"/>
<line class="fg_stroke" marker-end="url(#square)" x1="236" x2="236" y1="232" y2="264"/>
<line class="fg_stroke" x1="236" x2="256" y1="232" y2="232"/>
<line class="fg_stroke" marker-end="url(#square)" marker-start="url(#square)" x1="236" x2="236" y1="264" y2="296"/>
<line class="fg_stroke" marker-start="url(#square)" x1="236" x2="236" y1="296" y2="328"/>
<line class="fg_stroke" x1="236" x2="272" y1="328" y2="328"/>
<path class="fg_stroke no_fill" d="M 198 228 A 4 4 0 0 0 200 232"/>
<path class="fg_stroke no_fill" d="M 256 232 A 8 8 0 0 0 262 228"/>
<path class="fg_stroke no_fill" d="M 274 332 A 4 4 0 0 0 272 328"/>
</g>
<g>
<line class="fg_stroke" x1="200" x2="204" y1="344" y2="344"/>
<line class="fg_stroke dashed" x1="168" x2="200" y1="344" y2="344"/>
</g>
<g>
<line class="fg_stroke" x1="200" x2="236" y1="360" y2="360"/>
<line class="fg_stroke" marker-end="url(#square)" x1="236" x2="236" y1="360" y2="392"/>
<line class="fg_stroke" x1="236" x2="256" y1="360" y2="360"/>
<line class="fg_stroke" marker-start="url(#square)" x1="236" x2="236" y1="392" y2="400"/>
<line class="fg_stroke dashed" x1="236" x2="236" y1="400" y2="432"/>
<path class="fg_stroke no_fill" d="M 198 356 A 4 4 0 0 0 200 360"/>
<path class="fg_stroke no_fill" d="M 256 360 A 8 8 0 0 0 262 356"/>
</g>
<g>
<line class="fg_stroke" x1="210" x2="198" y1="76" y2="100"/>
<path class="fg_stroke no_fill" d="M 216 72 A 8 8 0 0 0 210 76"/>
</g>
<g>
<line class="fg_stroke" x1="210" x2="198" y1="204" y2="228"/>
<path class="fg_stroke no_fill" d="M 216 200 A 8 8 0 0 0 210 204"/>
</g>
<g>
<line class="fg_stroke" x1="210" x2="198" y1="332" y2="356"/>
<path class="fg_stroke no_fill" d="M 216 328 A 8 8 0 0 0 210 332"/>
</g>
<g>
<line class="fg_stroke" x1="216" x2="272" y1="72" y2="72"/>
<path class="fg_stroke no_fill" d="M 274 76 A 4 4 0 0 0 272 72"/>
</g>
<g>
<line class="fg_stroke" x1="216" x2="236" y1="200" y2="200"/>
</g>
<g>
<line class="fg_stroke" x1="216" x2="236" y1="328" y2="328"/>
</g>
<g>
<line class="fg_stroke" x1="216" x2="236" y1="584" y2="584"/>
<line class="fg_stroke" x1="236" x2="236" y1="584" y2="608"/>
<line class="fg_stroke" x1="236" x2="240" y1="584" y2="584"/>
<path class="fg_stroke no_fill" d="M 214 580 A 4 4 0 0 0 216 584"/>
<path class="fg_stroke no_fill" d="M 240 584 A 8 8 0 0 0 246 580"/>
</g>
<g>
<line class="fg_stroke" x1="226" x2="214" y1="556" y2="580"/>
<path class="fg_stroke no_fill" d="M 232 552 A 8 8 0 0 0 226 556"/>
</g>
<g>
<line class="fg_stroke" x1="228" x2="228" y1="128" y2="144"/>
<line class="fg_stroke" x1="228" x2="232" y1="144" y2="144"/>
<line class="fg_stroke" x1="232" x2="228" y1="128" y2="128"/>
</g>
<g>
<line class="fg_stroke" x1="228" x2="228" y1="160" y2="176"/>
<line class="fg_stroke" x1="228" x2="232" y1="176" y2="176"/>
<line class="fg_stroke" x1="232" x2="228" y1="160" y2="160"/>
</g>
<g>
<line class="fg_stroke" x1="228" x2="228" y1="256" y2="272"/>
<line class="fg_stroke" x1="228" x2="232" y1="272" y2="272"/>
<line class="fg_stroke" x1="232" x2="228" y1="256" y2="256"/>
</g>
<g>
<line class="fg_stroke" x1="228" x2="228" y1="288" y2="304"/>
<line class="fg_stroke" x1="228" x2="232" y1="304" y2="304"/>
<line class="fg_stroke" x1="232" x2="228" y1="288" y2="288"/>
</g>
<g>
<line class="fg_stroke" x1="228" x2="228" y1="384" y2="400"/>
<line class="fg_stroke" x1="228" x2="232" y1="400" y2="400"/>
<line class="fg_stroke" x1="232" x2="228" y1="384" y2="384"/>
</g>
<g>
<line class="fg_stroke" x1="228" x2="228" y1="640" y2="656"/>
<line class="fg_stroke" x1="228" x2="232" y1="656" y2="656"/>
<line class="fg_stroke" x1="232" x2="228" y1="640" y2="640"/>
</g>
<g>
<line class="fg_stroke" x1="236" x2="236" y1="528" y2="552"/>
<line class="fg_stroke" x1="236" x2="232" y1="552" y2="552"/>
<line class="fg_stroke" x1="236" x2="256" y1="552" y2="552"/>
<path class="fg_stroke no_fill" d="M 258 556 A 4 4 0 0 0 256 552"/>
</g>
<g>
<line class="fg_stroke" marker-end="url(#square)" x1="236" x2="236" y1="624" y2="648"/>
<line class="fg_stroke" marker-start="url(#square)" x1="236" x2="236" y1="648" y2="672"/>
</g>
<g>
<line class="fg_stroke" x1="240" x2="244" y1="128" y2="128"/>
<line class="fg_stroke" x1="244" x2="244" y1="128" y2="144"/>
<line class="fg_stroke" x1="244" x2="240" y1="144" y2="144"/>
</g>
<g>
<line class="fg_stroke" x1="240" x2="244" y1="160" y2="160"/>
<line class="fg_stroke" x1="244" x2="244" y1="160" y2="176"/>
<line class="fg_stroke" x1="244" x2="240" y1="176" y2="176"/>
</g>
<g>
<line class="fg_stroke" x1="240" x2="244" y1="256" y2="256"/>
<line class="fg_stroke" x1="244" x2="244" y1="256" y2="272"/>
<line class="fg_stroke" x1="244" x2="240" y1="272" y2="272"/>
</g>
<g>
<line class="fg_stroke" x1="240" x2="244" y1="288" y2="288"/>
<line class="fg_stroke" x1="244" x2="244" y1="288" y2="304"/>
<line class="fg_stroke" x1="244" x2="240" y1="304" y2="304"/>
</g>
<g>
<line class="fg_stroke" x1="240" x2="244" y1="384" y2="384"/>
<line class="fg_stroke" x1="244" x2="244" y1="384" y2="400"/>
<line class="fg_stroke" x1="244" x2="240" y1="400" y2="400"/>
</g>
<g>
<line class="fg_stroke" x1="240" x2="244" y1="640" y2="640"/>
<line class="fg_stroke" x1="244" x2="244" y1="640" y2="656"/>
<line class="fg_stroke" x1="244" x2="240" y1="656" y2="656"/>
</g>
<g>
<line class="fg_stroke" x1="246" x2="258" y1="580" y2="556"/>
</g>
<g>
<line class="fg_stroke" marker-end="url(#triangle)" x1="256" x2="252" y1="136" y2="136"/>
<line class="fg_stroke" x1="256" x2="304" y1="136" y2="136"/>
</g>
<g>
<line class="fg_stroke" marker-end="url(#triangle)" x1="256" x2="252" y1="168" y2="168"/>
<line class="fg_stroke" x1="256" x2="304" y1="168" y2="168"/>
</g>
<g>
<line class="fg_stroke" marker-end="url(#triangle)" x1="256" x2="252" y1="264" y2="264"/>
<line class="fg_stroke" x1="256" x2="304" y1="264" y2="264"/>
</g>
<g>
<line class="fg_stroke" marker-end="url(#triangle)" x1="256" x2="252" y1="296" y2="296"/>
<line class="fg_stroke" x1="256" x2="304" y1="296" y2="296"/>
</g>
<g>
<line class="fg_stroke" marker-end="url(#triangle)" x1="256" x2="252" y1="392" y2="392"/>
<line class="fg_stroke" x1="256" x2="304" y1="392" y2="392"/>
</g>
<g>
<line class="fg_stroke" x1="262" x2="274" y1="100" y2="76"/>
</g>
<g>
<line class="fg_stroke" x1="262" x2="274" y1="228" y2="204"/>
</g>
<g>
<line class="fg_stroke" x1="262" x2="274" y1="356" y2="332"/>
</g>
<g>
<line class="fg_stroke" marker-end="url(#triangle)" x1="280" x2="276" y1="88" y2="88"/>
<line class="fg_stroke" x1="280" x2="304" y1="88" y2="88"/>
</g>
<g>
<line class="fg_stroke" marker-end="url(#triangle)" x1="280" x2="276" y1="216" y2="216"/>
<line class="fg_stroke" x1="280" x2="304" y1="216" y2="216"/>
</g>
<g>
<line class="fg_stroke" marker-end="url(#triangle)" x1="280" x2="276" y1="344" y2="344"/>
<line class="fg_stroke" x1="280" x2="304" y1="344" y2="344"/>
</g>
<g>
<line class="fg_stroke dashed" x1="48" x2="80" y1="552" y2="552"/>
</g>
<g>
<line class="fg_stroke dashed" x1="48" x2="80" y1="584" y2="584"/>
</g>
<g>
<line class="fg_stroke dashed" x1="104" x2="160" y1="72" y2="72"/>
</g>
<g>
<line class="fg_stroke dashed" x1="104" x2="160" y1="104" y2="104"/>
</g>
<g>
<line class="fg_stroke dashed" x1="104" x2="160" y1="328" y2="328"/>
</g>
<g>
<line class="fg_stroke dashed" x1="104" x2="160" y1="360" y2="360"/>
</g>
<g>
<line class="fg_stroke dashed" x1="120" x2="160" y1="200" y2="200"/>
</g>
<g>
<line class="fg_stroke dashed" x1="120" x2="160" y1="232" y2="232"/>
</g>
<g>
<text class="fg_fill" x="33" y="492">
Legend
</text>
</g>
<g>
<text class="fg_fill" x="97" y="28">
Validators
</text>
</g>
<g>
<text class="fg_fill" x="97" y="572">
Validator Set
</text>
</g>
<g>
<text class="fg_fill" x="113" y="92">
A
</text>
</g>
<g>
<text class="fg_fill" x="113" y="348">
A
</text>
</g>
<g>
<text class="fg_fill" x="129" y="92">
B
</text>
</g>
<g>
<text class="fg_fill" x="129" y="220">
A
</text>
</g>
<g>
<text class="fg_fill" x="129" y="348">
B
</text>
</g>
<g>
<text class="fg_fill" x="145" y="92">
C
</text>
</g>
<g>
<text class="fg_fill" x="145" y="220">
B
</text>
</g>
<g>
<text class="fg_fill" x="145" y="348">
D
</text>
</g>
<g>
<text class="fg_fill" x="209" y="28">
Blocks
</text>
</g>
<g>
<text class="fg_fill" x="217" y="92">
Era
</text>
</g>
<g>
<text class="fg_fill" x="217" y="220">
Era
</text>
</g>
<g>
<text class="fg_fill" x="217" y="348">
Era
</text>
</g>
<g>
<text class="fg_fill" x="249" y="92">
1
</text>
</g>
<g>
<text class="fg_fill" x="249" y="220">
2
</text>
</g>
<g>
<text class="fg_fill" x="249" y="348">
3
</text>
</g>
<g>
<text class="fg_fill" x="281" y="572">
Switch Block
</text>
</g>
<g>
<text class="fg_fill" x="281" y="652">
Normal Block
</text>
</g>
<g>
<text class="fg_fill" x="313" y="28">
Joining Node Actions
</text>
</g>
<g>
<text class="fg_fill" x="313" y="92">
Initialize validator set
</text>
</g>
<g>
<text class="fg_fill" x="313" y="140">
Check A/B/C sigs
</text>
</g>
<g>
<text class="fg_fill" x="313" y="172">
Check A/B/C sigs
</text>
</g>
<g>
<text class="fg_fill" x="313" y="220">
Update validator set
</text>
</g>
<g>
<text class="fg_fill" x="313" y="268">
Check A/B sigs
</text>
</g>
<g>
<text class="fg_fill" x="313" y="300">
Check A/B sigs
</text>
</g>
<g>
<text class="fg_fill" x="313" y="348">
Update validator set
</text>
</g>
<g>
<text class="fg_fill" x="313" y="396">
Check A/B/D sigs
</text>
</g>
</svg>